<?xml version="1.0" encoding="UTF-8" standalone="no"?>
<!-- Created with Inkscape (http://www.inkscape.org/) -->

<svg
   width="144.90396mm"
   height="18.069151mm"
   viewBox="0 0 144.90396 18.069151"
   version="1.1"
   id="svg1"
   xmlns="http://www.w3.org/2000/svg"
   xmlns:svg="http://www.w3.org/2000/svg">
  <defs
     id="defs1" />
  <g
     id="layer1"
     style="display:inline"
     transform="translate(-32.387135,-49.362879)">
    <path
       id="path1-8-3"
       style="color:#000000;fill:#ffffff;fill-opacity:1;-inkscape-stroke:none"
       d="m 93.552734,54.673828 c -1.813832,0 -3.300781,1.486949 -3.300781,3.300781 0,1.813832 1.486949,3.298828 3.300781,3.298828 1.813832,0 3.300782,-1.484996 3.300782,-3.298828 0,-1.813832 -1.48695,-3.300781 -3.300782,-3.300781 z m 0,1.470703 c 1.019386,0 1.830078,0.810692 1.830078,1.830078 0,1.019386 -0.810692,1.830078 -1.830078,1.830078 -1.019386,0 -1.830078,-0.810692 -1.830078,-1.830078 0,-1.019386 0.810692,-1.830078 1.830078,-1.830078 z m 14.041016,4.091797 c -1.81383,0 -3.30078,1.486949 -3.30078,3.300781 0,1.813832 1.48695,3.298828 3.30078,3.298828 1.81383,0 3.30078,-1.484996 3.30078,-3.298828 0,-1.813832 -1.48695,-3.300781 -3.30078,-3.300781 z m 0,1.470703 c 1.01939,0 1.83008,0.810692 1.83008,1.830078 0,1.019386 -0.81069,1.830078 -1.83008,1.830078 -1.01939,0 -1.83008,-0.810692 -1.83008,-1.830078 0,-1.019386 0.81069,-1.830078 1.83008,-1.830078 z m -5.97722,-12.344153 0.002,4.69e-4 5.3e-4,5.18e-4 c -3.842886,-0.03319 -7.402814,2.416884 -8.65684,6.174817 0.04458,0.0031 0.0897,0.01094 0.143663,0.02893 0.0867,0.0048 0.158493,0.0278 0.293521,0.0894 h 5.14e-4 c 0.06209,0.011 0.09246,0.02393 0.164852,0.04961 -0.03813,-0.0095 -0.151212,-0.04152 -0.114217,-0.02839 0.07111,0.02469 0.145906,0.03799 0.216526,0.06406 0.01944,0.0071 0.05596,0.0166 0.08008,0.02689 0.02669,0.0071 0.04688,0.02082 0.08992,0.05064 0.0018,8.74e-4 0.0035,0.0019 0.0035,0.0021 0.0424,0.0063 0.08474,0.01364 0.126086,0.02482 0.01493,0.004 0.08099,0.03741 0.142111,0.06925 0.02153,0.0035 0.04317,0.0083 0.06511,0.01553 0.02879,0.0094 0.05669,0.02103 0.08423,0.03358 0.01442,0.0041 0.02847,0.0083 0.04289,0.0124 6.46e-4,1.81e-4 0.0011,-2.72e-4 0.002,-1.3e-5 0.05398,0.0041 0.107907,0.012 0.161233,0.02118 0.02761,0.0048 0.05378,0.01458 0.08116,0.02064 -0.127002,-0.01509 0.04198,0.0034 0.151937,0.03979 0.03967,0.01315 0.07845,0.02998 0.115749,0.04909 0.0096,0.0017 0.0182,0.0035 0.02742,0.0051 0.236683,0.07349 0.08905,0.02688 -0.02637,-0.0041 0.01408,0.0072 0.02848,0.01357 0.04181,0.02169 0.02653,0.01597 -0.04113,-0.01485 -0.08162,-0.02942 0.01136,0.0019 0.02272,0.0043 0.03408,0.0062 -0.01861,-0.005 -0.03482,-0.0083 -0.05013,-0.01243 0.0037,0.0012 0.01,0.0045 0.01494,0.0062 -0.0179,-0.0031 -0.03589,-0.0062 -0.05376,-0.0098 0.005,0.004 0.01489,0.0094 0.03929,0.02019 0.0976,0.04287 0.203274,0.06313 0.305412,0.09406 -0.07411,-0.03715 -0.104453,-0.05318 0.04754,0.01495 9.12e-4,3.55e-4 0.0028,7.06e-4 0.0037,0.0011 9.14e-4,3.44e-4 0.0035,0.002 0.0044,0.0025 0.02236,0.01012 0.02218,0.0093 0.05374,0.02376 0.100564,0.05909 0.229537,0.129464 0.301274,0.227376 -0.0229,-0.02311 -0.0412,-0.04052 -0.02841,-0.02325 0.01026,0.01393 0.02116,0.02735 0.03205,0.04083 0.0085,0.0078 0.0118,0.01081 0.01962,0.01808 -0.0052,-0.01056 -0.01282,-0.02129 -0.02015,-0.03153 0.0271,0.02773 0.0586,0.06198 0.08475,0.0925 -0.008,-0.0089 -0.03054,-0.02957 -0.06461,-0.06098 0.0014,0.0023 0.0029,0.0044 0.0042,0.0068 0.0021,0.0034 0.0016,0.0054 0.0021,0.0072 0.0016,0.0017 0.003,0.0037 0.0036,0.0052 -0.0017,-0.0012 -0.0025,-0.0021 -0.0033,-0.0026 5e-6,0.01501 -0.06693,-0.04742 -0.121958,-0.103356 -0.03557,-0.03033 -0.03742,-0.03169 -0.0894,-0.07648 0.0917,0.08277 0.174252,0.176738 0.273364,0.250113 -0.0194,-0.02189 -0.03888,-0.04391 -0.05789,-0.06614 0.02937,0.02414 0.05694,0.04638 0.05476,0.04288 2.99e-4,3.52e-4 5.02e-4,7.59e-4 5.19e-4,10e-4 0.01891,0.02225 0.02327,0.0304 0.02118,0.03256 0.0022,0.0031 0.0021,0.0034 0.0035,0.0058 -6.29e-4,-2.83e-4 0.0022,0.003 0.0013,0.0026 -4.55e-4,-2.91e-4 -2.73e-4,-1.44e-4 -0.0018,-9.51e-4 -0.0076,-0.0053 -0.01379,-0.01205 -0.02117,-0.01756 0.01794,0.02022 0.03567,0.04047 0.05323,0.06098 0.01629,0.02337 0.03592,0.05043 0.04752,0.07027 0.913771,-3.211469 4.201132,-5.086262 7.438304,-4.218864 3.26877,0.875865 5.18515,4.198025 4.3093,7.466729 -0.12498,0.466454 -0.30761,0.899293 -0.52761,1.304314 0.0379,-0.0025 0.0769,-0.0041 0.1173,-0.0041 0.0551,-3e-6 0.12314,-0.0066 0.17673,0.0026 0.002,3.48e-4 -0.004,6.84e-4 -0.006,0.001 0.061,-0.0057 0.12239,-0.0098 0.18345,-0.0088 0.0611,9.65e-4 0.12202,0.007 0.18243,0.02067 0.0557,0.01261 0.13952,-0.0026 0.1638,0.04913 l 5.2e-4,5.16e-4 c 0.0194,0.005 0.0388,0.0096 0.0579,0.0155 0.0251,0.0077 0.0585,0.01094 0.0749,0.02995 0.0623,0.01757 0.0341,0.01407 0.006,0.0098 2e-4,8.96e-4 -2e-4,0.0015 -5.2e-4,0.0021 0.009,0.0028 0.0199,0.0062 0.0744,0.01912 -0.20238,-0.04215 0.0497,0.0067 0.21393,0.08733 0.0231,0.01134 0.0439,0.02617 0.0641,0.04237 0.0266,0.0081 0.0523,0.01633 0.0765,0.02483 0.04,0.01144 0.0896,0.03135 0.13281,0.05219 0.0425,0.02171 0.0863,0.04028 0.12867,0.06201 0.0214,0.01098 -0.0437,-0.01956 -0.0656,-0.02945 0.1718,0.07996 0.12328,0.05727 0.078,0.03616 0.0122,0.0031 0.0244,0.0061 0.0367,0.0093 0.0254,0.01274 0.0534,0.02175 0.0765,0.03826 0.006,0.0042 0.005,0.0042 -1e-5,0.0031 0.0768,0.03092 0.25906,0.08623 0.20671,0.08785 0.0188,0.0055 0.0147,0.0043 0.0351,0.01032 0.48561,0.433807 0.0474,0.04235 0.0475,0.04237 0.0345,0.006 0.061,0.03025 0.0858,0.05736 0.0167,0.0087 0.0312,0.01532 0.0491,0.02533 0.004,0.0024 0.007,0.007 0.0108,0.0093 0.14229,0.07516 0.25876,0.208752 0.36328,0.330213 0.0558,0.03381 0.10526,0.06903 0.15039,0.105415 0.26409,-0.527317 0.48455,-1.084547 0.64285,-1.675349 1.28708,-4.803428 -1.5853,-9.780977 -6.38876,-11.06806 -0.74966,-0.200871 -1.50346,-0.300321 -2.24689,-0.306957 z m -7.684793,6.5195 c 0.01281,0.0082 0.03175,0.01903 0.04705,0.02842 0.0041,-2.14e-4 0.0092,-3.65e-4 0.01343,-5.29e-4 -0.01984,-0.0097 -0.04023,-0.01893 -0.06048,-0.02791 z m 0.08215,0.04961 c 0.01196,0.0072 0.01916,0.01228 0.03256,0.02015 0.0094,0.0055 -0.0033,-0.0064 -0.0176,-0.0181 z m 0.701251,0.156578 c -0.0059,-3.83e-4 -0.01649,-0.0012 -0.0092,5.53e-4 0.0048,0.0011 0.0086,0.0017 0.0129,0.0026 -8.04e-4,-7.55e-4 -0.0033,-0.0028 -0.0032,-0.0032 z m 0.513664,3.356384 c -0.09168,0.102428 -0.194081,0.193466 -0.305927,0.274401 0.09313,0.02707 0.183686,0.05274 0.247531,0.07287 0.07854,0.02477 0.143363,-0.0817 0.214977,-0.122472 -0.04376,0.06451 -0.01559,0.02062 -0.120396,0.112657 0.0048,-0.003 0.0097,-0.0063 0.01447,-0.0093 0.02161,-0.01337 -0.07754,0.0658 -0.05892,0.04857 0.02089,-0.01935 0.02972,-0.02636 0.04445,-0.03928 -0.07579,0.04762 -0.150097,0.09826 -0.223244,0.149862 -0.0088,0.0065 0.02056,-0.0083 0.03048,-0.01344 0.01871,-0.0097 0.03704,-0.02062 0.05532,-0.031 0.0035,-0.002 0.01825,-0.0076 0.01059,-0.0057 -0.0549,0.04446 -0.107272,0.09299 -0.167948,0.129191 -0.01498,0.009 -0.04268,0.02702 -0.06616,0.04288 -0.0026,0.0059 -0.01068,0.0098 -0.01602,0.01395 -0.0049,0.0031 -0.008,0.0071 -0.01294,0.01033 0.003,-0.0036 0.0061,-0.0079 0.0081,-0.01141 -0.01866,0.01253 -0.03108,0.02055 -0.04595,0.02947 -0.0029,0.0079 -0.0045,0.01353 -0.0057,0.01809 0.01376,-0.01151 0.02748,-0.0229 0.04136,-0.0341 -0.0237,0.0302 -0.04924,0.0639 -0.04186,0.03411 -0.03391,0.02848 -0.06875,0.0563 -0.108479,0.07494 -0.03257,0.01521 -0.0693,0.02829 -0.105943,0.04031 -0.0095,0.0055 -0.02146,0.01209 -0.02735,0.01603 -0.04812,0.0259 -0.09673,0.0514 -0.14418,0.07855 -0.01786,0.0076 -0.03549,0.01559 -0.05325,0.02325 0.01817,-0.0077 0.0302,-0.01241 0.01858,-0.0062 -0.08174,0.04355 -0.119995,0.05596 -0.172082,0.06718 8.18e-4,7.04e-4 -0.0049,0.0032 -0.01348,0.0067 -5.35e-4,3.08e-4 -9.37e-4,6.78e-4 -10e-4,0.001 -0.01775,0.01026 -0.03543,0.0199 -0.05482,0.02686 -0.06394,0.02333 -0.129472,0.04432 -0.196367,0.05684 -0.01032,0.0047 -0.02001,0.0097 -0.02996,0.01448 -0.04193,0.0054 -0.08361,0.01145 -0.125578,0.01705 -0.03497,0.01028 -0.06954,0.02131 -0.105403,0.02739 -0.05241,0.0088 -0.106238,0.01041 -0.159163,0.01551 -0.07264,-0.0074 -0.103826,-0.0084 -0.13488,-0.0083 -0.09118,0.04234 -0.18734,0.0625 -0.285772,0.06925 -0.110235,0.03318 -0.223709,0.04184 -0.338478,0.03152 0.796658,3.041284 3.150428,5.591156 6.39134,6.459554 2.69888,0.723165 5.44476,0.123231 7.56646,-1.385963 -0.16123,-0.07702 -0.0125,-0.0091 -0.21342,-0.09249 -0.0288,-0.01195 -0.11622,-0.0403 -0.0853,-0.03825 0.11784,0.0081 0.38846,0.167968 0.34985,0.05633 -0.0241,-0.06983 -0.0447,-0.125142 -0.0672,-0.188101 -0.053,-0.01542 -0.10791,-0.03445 -0.16433,-0.05736 -0.14126,-0.05723 -0.28568,-0.09753 -0.42065,-0.167946 1.3e-4,0.01456 0.002,0.03685 0.002,0.04909 0.0517,0.05961 0.10332,0.119183 0.15503,0.178801 0.0943,0.05667 -0.0239,0.02411 -0.18087,-0.119375 -0.0475,-0.04342 -0.0971,-0.09108 -0.12712,-0.147792 v -5.17e-4 c -2.2e-4,-2.4e-4 -5.7e-4,-8.29e-4 -5.2e-4,-0.001 -5.2e-4,-5.2e-4 -5.6e-4,-6.7e-4 -5.2e-4,-10e-4 -6.1e-4,-0.0015 -0.001,-0.0031 -0.002,-0.0046 -0.003,-0.0029 -0.007,-0.0059 -0.0103,-0.0093 0.002,0.0018 0.005,0.0065 0.009,0.01032 -0.0272,-0.02719 -0.0517,-0.05194 -0.0548,-0.05633 -0.0105,-0.0069 -0.0191,-0.0099 -0.0305,-0.01814 -0.0426,-0.03045 -0.0797,-0.06736 -0.12092,-0.09974 -0.004,-0.0029 0.0107,0.01425 0.008,0.01084 -0.0525,-0.05309 -0.104,-0.107185 -0.15606,-0.160714 -0.16498,-0.264904 0.1287,0.276469 -0.16537,-0.234094 -0.0209,-0.03626 -0.0336,-0.0766 -0.0496,-0.115228 -6.3e-4,-0.0014 -0.001,-0.0025 -0.003,-0.0041 0.002,0.007 0.003,0.01152 0.006,0.01757 -0.0125,-0.02815 -0.043,-0.05554 -0.046,-0.08423 -0.0262,-0.0486 -0.0348,-0.08429 -0.0439,-0.130228 -0.004,-0.0063 -0.008,-0.01088 -0.0124,-0.01861 -0.0115,-0.0037 -0.0287,-0.02748 -0.0506,-0.08578 -3.8e-4,-0.001 -3.2e-4,-0.002 -0.001,-0.0031 -0.0196,-0.0363 -0.0333,-0.06563 -0.0253,-0.06408 9.7e-4,1.65e-4 0.003,3.7e-4 0.004,5.85e-4 -0.006,-0.01957 -0.013,-0.03926 -0.0186,-0.05889 -0.0475,-0.09146 -0.0727,-0.143486 -0.0873,-0.218074 -0.053,-0.14096 -0.0518,-0.29477 -0.0419,-0.438734 0.003,-0.03979 0.006,-0.07802 0.0113,-0.115244 -1.43279,1.044746 -3.3052,1.455257 -5.164536,0.957048 -2.348365,-0.629242 -3.986261,-2.523375 -4.403873,-4.750616 -0.0042,0.0043 -0.0061,0.0076 -0.01037,0.01239 0.0084,0.01302 -0.06717,0.07147 -0.05113,0.05478 0.02136,-0.02222 0.03689,-0.03925 0.05113,-0.05478 -6.47e-4,-0.001 -0.0016,-0.0017 -0.0035,-0.0021 -0.09718,-0.02251 -0.19927,-0.06135 -0.302304,-0.102316 z m -0.703318,0.813387 c -0.09401,0.02507 -0.149746,0.03387 -0.02945,0.01447 0.01024,-0.0044 0.01969,-0.0096 0.02945,-0.01447 z m -0.33486,0.13901 c -0.0092,0.0042 -0.01802,0.0086 -0.02692,0.0129 0.0043,-8.72e-4 0.0075,-0.0017 0.01186,-0.0026 0.0055,-0.0016 0.02048,-0.01294 0.01495,-0.01034 z m -0.783931,0.169499 c -0.02221,0.0074 -0.0447,0.01463 -0.0667,0.02273 -0.0229,0.0084 0.03122,-0.0098 0.06972,-0.02275 -9.5e-4,1.4e-5 -0.002,1.4e-5 -0.003,2e-5 z m 14.643037,0.94051 c 0.009,0.0023 0.0372,0.0096 0.0718,0.01911 -0.003,-0.0011 -0.005,-0.0021 -0.009,-0.0036 -0.0273,-0.0068 -0.0577,-0.01435 -0.0625,-0.01554 z m -2.75694,2.646868 c -6.9e-4,-0.0012 0.003,0.01544 0.008,0.03616 0.002,0.0014 0.002,0.0023 0.004,0.0036 -0.003,-0.01053 -0.005,-0.0193 -0.009,-0.03101 -0.002,-0.0055 -0.003,-0.0084 -0.003,-0.0088 z m 0.65112,0.999421 c 4.6e-4,1.49e-4 9.8e-4,9.9e-5 0.003,0.002 -2.3e-4,-2.74e-4 -2.9e-4,-7.18e-4 -5.2e-4,-0.001 -8.6e-4,-5.28e-4 -0.002,-5.58e-4 -0.003,-9.45e-4 z m 0.13694,0.134877 c 0.004,0.0049 0.006,0.0077 0.009,0.01235 0.0262,0.02506 0.0431,0.04079 0.0269,0.02326 -7.2e-4,-0.0011 -10e-4,-0.002 -0.002,-0.0031 -0.0114,-0.01062 -0.0226,-0.02141 -0.0336,-0.03255 z m 18.55468,1.448227 q -0.45579,-0.839612 -1.17545,-1.96709 -0.69568,-1.127478 -1.53529,-2.39889 -0.83962,-1.2954 -1.77518,-2.638779 -0.93557,-1.367367 -1.87114,-2.638779 -0.91157,-1.2954 -1.79916,-2.422879 -0.8636,-1.127478 -1.55928,-1.9431 v 14.009517 h -1.60726 V 50.112441 h 1.2954 q 1.22344,1.367367 2.61479,3.166534 1.41535,1.775179 2.75873,3.646313 1.34337,1.847145 2.49484,3.622324 1.17546,1.775178 1.91911,3.094568 V 50.112441 h 1.60726 v 16.624307 z m 15.13699,-1.415345 v 1.415345 h -9.45163 V 50.112441 h 1.63125 v 15.208962 z m 2.59077,-15.208962 h 1.63125 v 16.624307 h -1.63125 z m 17.27199,16.624307 q -0.45579,-0.839612 -1.17545,-1.96709 -0.69568,-1.127478 -1.53529,-2.39889 -0.83961,-1.2954 -1.77518,-2.638779 -0.93557,-1.367367 -1.87113,-2.638779 -0.91158,-1.2954 -1.79917,-2.422879 -0.8636,-1.127478 -1.55928,-1.9431 v 14.009517 h -1.60726 V 50.112441 h 1.2954 q 1.22344,1.367367 2.61479,3.166534 1.41535,1.775179 2.75873,3.646313 1.34338,1.847145 2.49484,3.622324 1.17546,1.775178 1.91911,3.094568 V 50.112441 h 1.60726 v 16.624307 z m 15.83267,0 q -0.81562,-1.247423 -1.84715,-2.470857 -1.00753,-1.223434 -2.13501,-2.302934 -1.12748,-1.079501 -2.30293,-1.96709 -1.15147,-0.887589 -2.23097,-1.487312 v 8.228193 h -1.63125 V 50.112441 h 1.63125 v 7.748414 q 0.91158,-0.815623 2.01507,-1.871134 1.12748,-1.079501 2.20698,-2.159001 1.10349,-1.079501 2.06304,-2.063045 0.95956,-0.983545 1.53529,-1.655234 h 1.96709 q -0.69568,0.743655 -1.67922,1.775178 -0.98355,1.007534 -2.08704,2.087034 -1.10349,1.079501 -2.20697,2.135012 -1.07951,1.031523 -1.94311,1.823157 0.69568,0.4318 1.48732,1.0795 0.81562,0.623712 1.63124,1.391356 0.83961,0.743656 1.63125,1.583268 0.81562,0.815622 1.5113,1.655234 0.71966,0.839611 1.27141,1.631245 0.57573,0.791634 0.93557,1.463323 z M 39.967628,67.096192 q -1.607256,0 -2.998612,-0.575733 -1.367368,-0.575734 -2.39889,-1.679223 -1.007534,-1.10349 -1.607257,-2.710746 -0.575733,-1.631245 -0.575733,-3.718279 0,-2.087035 0.623711,-3.694291 0.647701,-1.631245 1.703212,-2.734734 1.055512,-1.10349 2.446868,-1.655234 1.391356,-0.575734 2.902657,-0.575734 0.935567,0 1.703211,0.119944 0.767645,0.119945 1.343379,0.311856 0.575733,0.167922 0.983545,0.359834 0.407811,0.167922 0.623711,0.311855 l -0.527756,1.415345 q -0.599722,-0.359833 -1.535289,-0.695678 -0.911578,-0.359833 -2.278946,-0.359833 -1.559278,0 -2.734734,0.527756 -1.151467,0.527755 -1.943101,1.487311 -0.791634,0.959556 -1.199445,2.278946 -0.383822,1.319389 -0.383822,2.926646 0,1.655234 0.383822,2.998612 0.407811,1.319389 1.175456,2.254956 0.767645,0.935568 1.871134,1.439334 1.127478,0.503767 2.566812,0.503767 1.583268,0 2.638779,-0.287867 1.079501,-0.311855 1.631246,-0.623711 l 0.455789,1.391356 q -0.167923,0.119945 -0.575734,0.287867 -0.407811,0.143933 -1.031523,0.311856 -0.623711,0.167922 -1.439334,0.263878 -0.815622,0.119944 -1.823156,0.119944 z m 19.406986,-0.359833 q -0.455789,-1.223434 -0.8636,-2.350912 -0.407812,-1.127479 -0.791634,-2.206979 h -8.084259 q -0.407811,1.0795 -0.815623,2.206979 -0.407811,1.127478 -0.839611,2.350912 h -1.703212 q 0.959556,-2.590801 1.799168,-4.821769 0.839611,-2.254957 1.631245,-4.246035 0.815622,-2.015068 1.607256,-3.862213 0.791634,-1.847145 1.679223,-3.694291 h 1.439334 q 0.887589,1.847146 1.679223,3.694291 0.791633,1.847145 1.583267,3.862213 0.815623,1.991078 1.655234,4.246035 0.839612,2.230968 1.823156,4.821769 z M 53.665256,51.983186 q -0.911578,2.063045 -1.775179,4.198057 -0.839611,2.135012 -1.751189,4.605869 h 7.076725 q -0.911578,-2.470857 -1.775178,-4.605869 -0.863601,-2.135012 -1.775179,-4.198057 z m 20.990259,3.118557 q 0,1.871134 -0.983545,2.950634 -0.983544,1.079501 -2.590801,1.559279 0.383823,0.479778 0.983545,1.2954 0.623712,0.815623 1.271412,1.799168 0.6477,0.959556 1.271411,2.015067 0.623712,1.055512 1.055512,2.015068 h -1.75119 Q 73.408092,65.776803 72.80837,64.817247 72.232636,63.857691 71.608925,62.970101 71.009203,62.058523 70.433469,61.290879 69.857735,60.523234 69.425935,59.9475 68.65829,60.01947 67.890646,60.01947 h -2.686757 v 6.716892 H 63.572644 V 50.423907 q 0.8636,-0.239889 2.015067,-0.335844 1.175456,-0.119945 2.159001,-0.119945 3.430413,0 5.157614,1.295401 1.751189,1.2954 1.751189,3.838224 z m -6.716892,-3.71828 q -0.911578,0 -1.607256,0.07197 -0.671689,0.04798 -1.127478,0.09596 v 7.076726 h 2.254956 q 1.127479,0 2.135013,-0.09596 1.007533,-0.119944 1.751189,-0.479778 0.743656,-0.383822 1.175456,-1.0795 0.4318,-0.695678 0.4318,-1.895123 0,-1.10349 -0.4318,-1.823157 -0.4318,-0.719667 -1.127478,-1.127478 -0.695678,-0.4318 -1.607256,-0.575734 -0.88759,-0.167922 -1.847146,-0.167922 z m 14.441272,15.496829 q -0.407811,0 -0.959556,-0.04798 -0.527755,-0.02399 -1.103489,-0.09596 -0.551745,-0.04798 -1.055512,-0.119945 -0.503766,-0.09596 -0.8636,-0.191911 V 50.423907 q 0.4318,-0.119944 0.959556,-0.191911 0.527756,-0.09596 1.0795,-0.143933 0.575734,-0.07197 1.10349,-0.09596 0.551745,-0.02399 1.007534,-0.02399 1.343378,0 2.542823,0.2159 1.223434,0.2159 2.135012,0.719667 0.911578,0.503767 1.439334,1.343379 0.551745,0.815622 0.551745,2.039056 0,1.343378 -0.695678,2.302934 -0.67169,0.935567 -1.823157,1.295401 0.719667,0.167922 1.31939,0.479778 0.599722,0.311856 1.055511,0.815622 0.455789,0.479778 0.695678,1.199445 0.263878,0.695678 0.263878,1.679223 0,2.350912 -1.871134,3.598335 -1.871134,1.223434 -5.781325,1.223434 z m -2.350912,-8.108248 v 6.54897 q 0.359834,0.04798 1.079501,0.119944 0.719667,0.04798 1.463323,0.04798 1.103489,0 2.135012,-0.143934 1.055511,-0.143933 1.847145,-0.527755 0.791633,-0.383823 1.271411,-1.055512 0.479778,-0.671689 0.479778,-1.727201 0,-0.959556 -0.335844,-1.583267 -0.335845,-0.6477 -0.959556,-1.007534 -0.623712,-0.383822 -1.53529,-0.527756 -0.887589,-0.143933 -1.991078,-0.143933 z m 0,-1.391356 h 3.166535 q 0.887589,0 1.679223,-0.119945 0.791634,-0.143933 1.367367,-0.479778 0.599723,-0.359833 0.935567,-0.935567 0.335845,-0.599722 0.335845,-1.5113 0,-0.815623 -0.359834,-1.367368 -0.359833,-0.575733 -1.031522,-0.935567 -0.647701,-0.359833 -1.559279,-0.503766 -0.911578,-0.167923 -2.015067,-0.167923 -0.88759,0 -1.511301,0.04798 -0.599723,0.04798 -1.007534,0.119945 z" />
  </g>
</svg>
